<svg xmlns="http://www.w3.org/2000/svg" viewBox="0 0 120 150" width="120" height="150">
  <!-- Bloom Bastion — Blossom tower, level 1. Source: design-assets/sprites_towers.jsx TowerBlossom({level:1}).
       Tokens resolved to hex (sprites are not CSS-var themed at runtime):
       blossom-light #ffd6e8, blossom-mid #ff6fa5, blossom-dark #c43d77, gold #ffd700.
       Idle bob / pulse-glow / petal-fall CSS keyframes from the source are DEFERRED (juice slice). -->
  <defs>
    <!-- Static neon glow (replaces drop-shadow(0 0 6px blossom-mid)). -->
    <filter id="bl1-glow" x="-60%" y="-60%" width="220%" height="220%">
      <feGaussianBlur in="SourceAlpha" stdDeviation="4" result="b"/>
      <feFlood flood-color="#ff6fa5" flood-opacity="0.9"/>
      <feComposite in2="b" operator="in" result="g"/>
      <feMerge><feMergeNode in="g"/><feMergeNode in="SourceGraphic"/></feMerge>
    </filter>
  </defs>

  <!-- hex pedestal -->
  <g>
    <ellipse cx="60" cy="140" rx="34" ry="9" fill="#000" opacity="0.28"/>
    <path d="M30 132 L60 122 L90 132 L90 138 L60 148 L30 138 Z" fill="#c43d77"/>
    <path d="M30 132 L60 122 L90 132 L60 142 Z" fill="#ff6fa5"/>
    <path d="M30 132 L60 142 L60 148 L30 138 Z" fill="#c43d77" opacity="0.7"/>
  </g>

  <g filter="url(#bl1-glow)">
    <!-- stem -->
    <rect x="56" y="92" width="8" height="34" rx="4" fill="#c43d77"/>

    <!-- main blossom (5 petals, scale 0.78 around 60,62) -->
    <g transform="rotate(0 60 51.86)"><ellipse cx="60" cy="51.86" rx="7.02" ry="9.36" fill="#ff6fa5"/><ellipse cx="60" cy="49.52" rx="3.51" ry="4.68" fill="#ffd6e8" opacity="0.7"/></g>
    <g transform="rotate(72 69.64 58.87)"><ellipse cx="69.64" cy="58.87" rx="7.02" ry="9.36" fill="#ff6fa5"/><ellipse cx="69.64" cy="56.53" rx="3.51" ry="4.68" fill="#ffd6e8" opacity="0.7"/></g>
    <g transform="rotate(144 65.96 70.2)"><ellipse cx="65.96" cy="70.2" rx="7.02" ry="9.36" fill="#ff6fa5"/><ellipse cx="65.96" cy="67.86" rx="3.51" ry="4.68" fill="#ffd6e8" opacity="0.7"/></g>
    <g transform="rotate(216 54.04 70.2)"><ellipse cx="54.04" cy="70.2" rx="7.02" ry="9.36" fill="#ff6fa5"/><ellipse cx="54.04" cy="67.86" rx="3.51" ry="4.68" fill="#ffd6e8" opacity="0.7"/></g>
    <g transform="rotate(288 50.36 58.87)"><ellipse cx="50.36" cy="58.87" rx="7.02" ry="9.36" fill="#ff6fa5"/><ellipse cx="50.36" cy="56.53" rx="3.51" ry="4.68" fill="#ffd6e8" opacity="0.7"/></g>

    <!-- glowing core orb (gold) -->
    <circle cx="60" cy="62" r="12.6" fill="#ffd700" opacity="0.18"/>
    <circle cx="60" cy="62" r="6" fill="#fff"/>
    <circle cx="60" cy="62" r="6" fill="#ffd700" opacity="0.55"/>
    <circle cx="58.2" cy="60.2" r="1.92" fill="#fff" opacity="0.9"/>
  </g>
</svg>
